<svg width="173" height="129" viewBox="0 0 173 129" fill="none" xmlns="http://www.w3.org/2000/svg">
<rect x="21.9709" y="1.31957" width="129.058" height="126.361" rx="25.6058" fill="url(#paint0_linear_3_233)" stroke="url(#paint1_linear_3_233)" stroke-width="0.788316"/>
<rect x="37" y="14.6147" width="46" height="46" rx="13.56" fill="url(#paint2_linear_3_233)"/>
<g clip-path="url(#clip0_3_233)">
<path d="M60 23.6147C67.731 23.6147 74 29.8838 74 37.6147C74 45.3457 67.731 51.6147 60 51.6147C52.269 51.6147 46 45.3513 46 37.6147C46 29.8782 52.269 23.6147 60 23.6147ZM58.1502 27.8935C56.4241 27.8991 54.861 30.6765 53.5172 36.1417C52.5671 36.1304 51.6956 36.1136 50.8803 36.1023H50.7567C50.6554 36.0966 50.5543 36.1023 50.453 36.1136C49.992 36.1978 49.6602 36.6027 49.6602 37.0694C49.6602 37.5474 50.0145 37.9577 50.4868 38.0308L50.4979 38.0421H53.0788C52.843 39.1085 52.6349 40.1809 52.4547 41.2581L52.3759 41.7136V41.736C52.376 41.8438 52.4034 41.9498 52.4555 42.0442C52.5076 42.1385 52.5827 42.2182 52.6738 42.2758C52.9719 42.4669 53.3711 42.377 53.5623 42.079L53.5791 42.0958L54.8442 38.0421H60.939C61.4056 39.8075 61.8891 41.6236 62.5302 43.3329C62.8731 44.2493 63.6715 46.3859 65.0097 46.3971H65.0265C67.0956 46.3971 67.9053 43.0517 68.4394 40.8365C68.5575 40.3585 68.653 39.948 68.7486 39.6444L68.788 39.5208L68.7936 39.5026C68.8374 39.3445 68.7481 39.1757 68.5912 39.1216C68.4281 39.0654 68.2426 39.1497 68.1864 39.3184L68.1413 39.442C67.9671 39.9312 67.804 40.3866 67.6579 40.7971L67.6466 40.8308C66.747 43.3666 66.3422 44.5248 65.5382 44.5248H65.4876C64.4587 44.5248 63.4972 40.3529 63.1316 38.7842C63.0698 38.5144 63.0136 38.2614 62.9574 38.0421H69.592C69.7101 38.0421 69.8281 38.014 69.935 37.9577L69.9401 37.9535C69.9475 37.9488 69.9552 37.9446 69.9631 37.9409L69.9968 37.9184L70.0136 37.9071C70.0306 37.8958 70.0474 37.8846 70.0643 37.8677L70.0891 37.8472C70.2109 37.7412 70.2972 37.5933 70.3341 37.4404C70.4185 37.0412 70.1543 36.6477 69.755 36.569H69.7213C69.6819 36.5633 69.6482 36.5577 69.6088 36.5577L69.5076 36.5465C67.1631 36.3778 64.7509 36.3102 62.4851 36.2654L62.4795 36.2484C61.3832 32.1159 60.0055 27.8935 58.1502 27.8935ZM58.0771 29.7545C58.1727 29.7545 58.2627 29.8107 58.3413 29.912C58.5325 30.2155 58.8698 30.8958 59.3703 32.4027C59.7132 33.4373 60.0843 34.7247 60.4779 36.2203C58.9824 36.1979 57.4755 36.1809 56.0136 36.1641L55.2715 36.1585C56.1093 32.8862 57.1269 30.4067 57.8746 29.822C57.9365 29.7826 58.004 29.7545 58.0771 29.7545Z" fill="white"/>
</g>
<rect x="37" y="66.6147" width="46" height="46" rx="13.56" fill="url(#paint3_linear_3_233)"/>
<rect x="37" y="66.6147" width="46" height="46" rx="13.56" fill="url(#paint4_linear_3_233)"/>
<path d="M51.9427 90.7502C51.9427 93.9318 54.162 96.2494 57.2455 96.2494C60.329 96.2494 62.5483 93.9318 62.5483 90.7502V83.2477H59.6416V90.6716C59.6416 92.2624 58.64 93.4212 57.2455 93.4212C55.8511 93.4212 54.8494 92.2624 54.8494 90.6716V83.2477H51.9427V90.7502ZM64.5073 83.2477V96.0137H67.414V83.2477H64.5073Z" fill="white"/>
<rect x="91" y="14.6147" width="46" height="46" rx="13.56" fill="url(#paint5_linear_3_233)"/>
<path d="M102.443 38.3512C102.443 41.5329 104.662 43.8504 107.746 43.8504C110.829 43.8504 113.048 41.5329 113.048 38.3512V30.8487H110.142V38.2727C110.142 39.8635 109.14 41.0223 107.746 41.0223C106.351 41.0223 105.349 39.8635 105.349 38.2727V30.8487H102.443V38.3512ZM113.911 43.6147L118.35 37.2121L113.99 30.8487H117.761L119.96 34.816L122.003 30.8487H125.695L121.571 37.0943L126.009 43.6147H122.199L119.96 39.5296L117.682 43.6147H113.911Z" fill="white"/>
<rect x="91" y="66.6147" width="46" height="46" rx="13.56" fill="url(#paint6_linear_3_233)"/>
<g clip-path="url(#clip1_3_233)">
<path d="M102.197 76.8202L117.806 75.6783C119.724 75.5153 120.216 75.6252 121.422 76.4933L126.404 79.9705C127.226 80.5684 127.5 80.7315 127.5 81.3826V100.453C127.5 101.648 127.062 102.355 125.528 102.463L107.402 103.55C106.251 103.604 105.703 103.441 105.1 102.68L101.431 97.9535C100.773 97.0835 100.5 96.4323 100.5 95.6713V78.7204C100.5 77.7434 100.938 76.9283 102.197 76.8202Z" fill="white"/>
<path d="M117.806 75.6783L102.197 76.8202C100.938 76.9283 100.5 77.7434 100.5 78.7204V95.6714C100.5 96.4324 100.773 97.0835 101.431 97.9535L105.1 102.68C105.703 103.441 106.251 103.604 107.402 103.55L125.528 102.463C127.061 102.355 127.5 101.648 127.5 100.453V81.3826C127.5 80.7651 127.254 80.5871 126.529 80.0599L126.404 79.9705L121.422 76.4933C120.216 75.6252 119.724 75.5153 117.806 75.6783ZM107.812 81.0706C106.332 81.1693 105.996 81.1916 105.155 80.5144L103.018 78.8304C102.801 78.6124 102.91 78.3404 103.457 78.2863L118.463 77.2003C119.723 77.0913 120.379 77.5263 120.872 77.9064L123.445 79.7535C123.555 79.8084 123.829 80.1335 123.5 80.1335L108.004 81.0575L107.812 81.0706ZM106.086 100.29V84.1006C106.086 83.3936 106.305 83.0676 106.962 83.0127L124.76 81.9806C125.364 81.9265 125.636 82.3065 125.636 83.0127V99.0936C125.636 99.8006 125.526 100.398 124.541 100.453L107.509 101.431C106.524 101.485 106.086 101.16 106.086 100.29ZM122.899 84.9686C123.008 85.4577 122.899 85.9467 122.405 86.0026L121.585 86.1637V98.1164C120.872 98.4964 120.215 98.7135 119.667 98.7135C118.791 98.7135 118.572 98.4414 117.915 97.6273L112.547 89.2609V97.3554L114.245 97.7363C114.245 97.7363 114.245 98.7144 112.875 98.7144L109.098 98.9314C108.988 98.7135 109.098 98.1704 109.481 98.0624L110.467 97.7913V87.0888L109.098 86.9789C108.988 86.4899 109.262 85.7838 110.029 85.7288L114.082 85.4587L119.667 93.9332V86.4359L118.244 86.2738C118.134 85.6748 118.572 85.2398 119.119 85.1868L122.899 84.9687L122.899 84.9686Z" fill="black"/>
</g>
<path d="M42.9541 74.4254L43.0837 74.0626L42.9541 74.4254C42.9538 74.4254 42.9536 74.4253 42.9533 74.4252L42.9541 74.4254ZM42.821 74.3779L46.4181 80.5911C46.9476 81.5056 48.3253 81.2888 48.5483 80.2559L51.8419 65.0016C52.0393 64.087 51.125 63.329 50.2629 63.6926L35.8681 69.7627C34.8968 70.1722 34.9358 71.5618 35.9285 71.9163L42.821 74.3779Z" fill="#7969FF" stroke="white" stroke-width="1.5412"/>
<path d="M133.322 46.6647L133.005 46.4457L133.322 46.6647C133.322 46.665 133.321 46.6652 133.321 46.6654L133.322 46.6647ZM133.241 46.781L140.174 44.9145C141.194 44.6398 141.341 43.2529 140.401 42.7701L126.519 35.6407C125.687 35.2133 124.718 35.9002 124.846 36.8271L126.984 52.3024C127.128 53.3466 128.48 53.6687 129.08 52.8015L133.241 46.781Z" fill="#6CD03E" stroke="white" stroke-width="1.5412"/>
<rect y="79.1414" width="39.3007" height="24.6592" rx="6.16481" fill="#7969FF"/>
<path d="M14.5582 88.248L12.0399 93.7531L9.31661 88.248H7.88175L11.4103 95.0709V97.7649H12.6109V95.0709L15.9638 88.248H14.5582ZM19.044 97.9406C21.1817 97.9406 22.7044 96.33 22.7044 94.1045C22.7044 91.879 21.1817 90.2685 19.044 90.2685C16.9064 90.2685 15.3837 91.879 15.3837 94.1045C15.3837 96.33 16.9064 97.9406 19.044 97.9406ZM19.044 96.7839C17.6384 96.7839 16.5989 95.6272 16.5989 94.1045C16.5989 92.5672 17.6384 91.3959 19.044 91.3959C20.4496 91.3959 21.4891 92.5672 21.4891 94.1045C21.4891 95.6272 20.4496 96.7839 19.044 96.7839ZM30.5533 97.7649L30.4947 96.3008V90.4442H29.3234V94.5145C29.2942 95.8029 28.3864 96.74 27.1565 96.74C26.1023 96.74 25.341 95.9494 25.341 94.8952V90.4442H24.1697V95.0123C24.1697 96.7107 25.341 97.9406 26.9808 97.9406C28.0789 97.9406 29.016 97.4281 29.3674 96.6082L29.4406 97.7649H30.5533Z" fill="white"/>
<rect x="137.938" y="51.0144" width="35.0624" height="24.6592" rx="6.16481" fill="#6CD03E"/>
<path d="M146.639 69.6379H147.84V62.0244L150.944 69.6087H152.086L155.043 62.0244V69.6379H156.244V60.121H154.487L151.53 67.9395L148.455 60.121H146.639V69.6379ZM164.59 67.5881L163.33 67.1196C163.213 68.0567 162.393 68.6862 161.339 68.6862C160.109 68.6862 159.202 67.7492 159.114 66.4315H164.707C164.721 66.2704 164.721 66.0801 164.721 65.919C164.721 63.7228 163.33 62.1415 161.339 62.1415C159.319 62.1415 157.825 63.7521 157.825 65.9776C157.825 68.2031 159.348 69.8136 161.398 69.8136C162.92 69.8136 164.297 68.8766 164.59 67.5881ZM159.099 65.3041C159.187 64.1035 160.153 63.2396 161.325 63.2396C162.496 63.2396 163.462 64.1035 163.521 65.3041H159.099Z" fill="white"/>
<defs>
<linearGradient id="paint0_linear_3_233" x1="86.4999" y1="0.925415" x2="86.4999" y2="128.075" gradientUnits="userSpaceOnUse">
<stop stop-color="white" stop-opacity="0.5"/>
<stop offset="1" stop-color="white" stop-opacity="0.2"/>
</linearGradient>
<linearGradient id="paint1_linear_3_233" x1="86.4999" y1="0.925415" x2="86.4999" y2="128.075" gradientUnits="userSpaceOnUse">
<stop stop-color="white"/>
<stop offset="1" stop-color="white" stop-opacity="0"/>
</linearGradient>
<linearGradient id="paint2_linear_3_233" x1="60" y1="14.6147" x2="60" y2="60.6147" gradientUnits="userSpaceOnUse">
<stop stop-color="#2519D2"/>
<stop offset="1" stop-color="#4A40E1"/>
</linearGradient>
<linearGradient id="paint3_linear_3_233" x1="60" y1="66.6147" x2="60" y2="112.615" gradientUnits="userSpaceOnUse">
<stop stop-color="#A259FF"/>
<stop offset="1" stop-color="#7969FF"/>
</linearGradient>
<linearGradient id="paint4_linear_3_233" x1="60" y1="66.6147" x2="60" y2="112.615" gradientUnits="userSpaceOnUse">
<stop stop-color="#0ACF83"/>
<stop offset="1" stop-color="#6CD03E"/>
</linearGradient>
<linearGradient id="paint5_linear_3_233" x1="114" y1="14.6147" x2="114" y2="60.6147" gradientUnits="userSpaceOnUse">
<stop stop-color="#FF7262"/>
<stop offset="1" stop-color="#F24E1E"/>
</linearGradient>
<linearGradient id="paint6_linear_3_233" x1="114" y1="66.6147" x2="114" y2="112.615" gradientUnits="userSpaceOnUse">
<stop stop-color="white"/>
<stop offset="1" stop-color="#ECECEC"/>
</linearGradient>
<clipPath id="clip0_3_233">
<rect width="28" height="28" fill="white" transform="translate(46 23.6147)"/>
</clipPath>
<clipPath id="clip1_3_233">
<rect width="27" height="28" fill="white" transform="translate(100.5 75.6147)"/>
</clipPath>
</defs>
</svg>
