<svg width="174" height="138" viewBox="0 0 174 138" fill="none" xmlns="http://www.w3.org/2000/svg">
<rect x="22.471" y="5.78835" width="129.058" height="126.361" fill="url(#paint0_linear_1_120)" stroke="white" stroke-width="0.788316"/>
<rect x="17.8474" y="0.394158" width="8.8442" height="8.8442" fill="white" fill-opacity="0.9" stroke="white" stroke-width="0.788316"/>
<rect x="17.8474" y="127.929" width="8.8442" height="8.8442" fill="white" fill-opacity="0.9" stroke="white" stroke-width="0.788316"/>
<rect x="148.85" y="0.394158" width="8.8442" height="8.8442" fill="white" fill-opacity="0.9" stroke="white" stroke-width="0.788316"/>
<rect x="148.85" y="127.929" width="8.8442" height="8.8442" fill="white" fill-opacity="0.9" stroke="white" stroke-width="0.788316"/>
<rect x="41.7272" y="23.5033" width="90.5457" height="90.5457" rx="21.5585" fill="#272727"/>
<g clip-path="url(#clip0_1_120)">
<path d="M77.0422 98.65C82.539 98.65 87.0002 94.1889 87.0002 88.6921V78.7341H77.0422C71.5454 78.7341 67.0842 83.1953 67.0842 88.6921C67.0842 94.1889 71.5454 98.65 77.0422 98.65Z" fill="#0ACF83"/>
<path d="M67.0842 68.7761C67.0842 63.2793 71.5454 58.8182 77.0422 58.8182H87.0002V78.7341H77.0422C71.5454 78.7341 67.0842 74.2729 67.0842 68.7761Z" fill="#A259FF"/>
<path d="M67.0842 48.8602C67.0842 43.3634 71.5453 38.9023 77.0421 38.9023H87.0001V58.8182H77.0421C71.5453 58.8182 67.0842 54.357 67.0842 48.8602Z" fill="#F24E1E"/>
<path d="M87.0001 38.9023H96.9581C102.455 38.9023 106.916 43.3634 106.916 48.8602C106.916 54.357 102.455 58.8182 96.9581 58.8182H87.0001V38.9023Z" fill="#FF7262"/>
<path d="M106.916 68.7761C106.916 74.2729 102.455 78.7341 96.9581 78.7341C91.4613 78.7341 87.0001 74.2729 87.0001 68.7761C87.0001 63.2793 91.4613 58.8182 96.9581 58.8182C102.455 58.8182 106.916 63.2793 106.916 68.7761Z" fill="#1ABCFE"/>
</g>
<path d="M50.7629 68.1614L36.3681 74.2314C35.3968 74.641 35.4358 76.0305 36.4285 76.3851L43.321 78.8467L46.9181 85.0599C47.4476 85.9744 48.8253 85.7576 49.0483 84.7247L52.3419 69.4704C52.5393 68.5558 51.625 67.7978 50.7629 68.1614ZM43.4541 78.8942C43.4538 78.8941 43.4536 78.894 43.4533 78.894L43.4541 78.8942L43.5837 78.5314L43.4541 78.8942Z" fill="#7969FF" stroke="white" stroke-width="1.5412"/>
<path d="M125.346 41.296L127.484 56.7713C127.628 57.8155 128.98 58.1375 129.58 57.2704L133.741 51.2498L140.674 49.3834C141.694 49.1086 141.841 47.7218 140.901 47.239L127.019 40.1096C126.187 39.6821 125.218 40.3691 125.346 41.296ZM133.822 51.1336C133.822 51.1338 133.821 51.134 133.821 51.1342L133.822 51.1336L133.505 50.9145L133.822 51.1336Z" fill="#6CD03E" stroke="white" stroke-width="1.5412"/>
<rect x="0.5" y="83.6102" width="39.3007" height="24.6592" rx="6.16481" fill="#7969FF"/>
<path d="M15.0582 92.7169L12.5399 98.2221L9.81661 92.7169H8.38175L11.9103 99.5398V102.234H13.1109V99.5398L16.4638 92.7169H15.0582ZM19.544 102.41C21.6817 102.41 23.2044 100.799 23.2044 98.5735C23.2044 96.348 21.6817 94.7375 19.544 94.7375C17.4064 94.7375 15.8837 96.348 15.8837 98.5735C15.8837 100.799 17.4064 102.41 19.544 102.41ZM19.544 101.253C18.1384 101.253 17.0989 100.096 17.0989 98.5735C17.0989 97.0362 18.1384 95.8649 19.544 95.8649C20.9496 95.8649 21.9891 97.0362 21.9891 98.5735C21.9891 100.096 20.9496 101.253 19.544 101.253ZM31.0533 102.234L30.9947 100.77V94.9132H29.8234V98.9835C29.7942 100.272 28.8864 101.209 27.6565 101.209C26.6023 101.209 25.841 100.418 25.841 99.3642V94.9132H24.6697V99.4813C24.6697 101.18 25.841 102.41 27.4808 102.41C28.5789 102.41 29.516 101.897 29.8674 101.077L29.9406 102.234H31.0533Z" fill="white"/>
<rect x="138.438" y="55.4833" width="35.0624" height="24.6592" rx="6.16481" fill="#6CD03E"/>
<path d="M147.139 74.1069H148.34V66.4934L151.444 74.0776H152.586L155.543 66.4934V74.1069H156.744V64.59H154.987L152.03 72.4085L148.955 64.59H147.139V74.1069ZM165.09 72.0571L163.83 71.5886C163.713 72.5256 162.893 73.1552 161.839 73.1552C160.609 73.1552 159.702 72.2182 159.614 70.9004H165.207C165.221 70.7394 165.221 70.549 165.221 70.388C165.221 68.1918 163.83 66.6105 161.839 66.6105C159.819 66.6105 158.325 68.2211 158.325 70.4465C158.325 72.672 159.848 74.2826 161.898 74.2826C163.42 74.2826 164.797 73.3455 165.09 72.0571ZM159.599 69.773C159.687 68.5724 160.653 67.7086 161.825 67.7086C162.996 67.7086 163.962 68.5724 164.021 69.773H159.599Z" fill="white"/>
<defs>
<linearGradient id="paint0_linear_1_120" x1="87" y1="5.3942" x2="87" y2="132.543" gradientUnits="userSpaceOnUse">
<stop stop-color="white" stop-opacity="0.5"/>
<stop offset="1" stop-color="white" stop-opacity="0.2"/>
</linearGradient>
<clipPath id="clip0_1_120">
<rect width="39.8319" height="59.7478" fill="white" transform="translate(67.0842 38.9023)"/>
</clipPath>
</defs>
</svg>
