<svg width="48" height="48" viewBox="0 0 48 48" fill="none" xmlns="http://www.w3.org/2000/svg">
<path d="M11.4932 33H22.5068C23.1465 33 23.6217 33.5924 23.483 34.2169L22.0532 40.6508C21.7482 42.0234 20.5307 43 19.1246 43H14.8754C13.4693 43 12.2518 42.0234 11.9468 40.6508L10.517 34.2169C10.3783 33.5924 10.8535 33 11.4932 33Z" stroke="white" stroke-width="2"/>
<path d="M21.4284 18.7968C24.1374 17.2328 28.0342 17.2727 29.8634 17.8101C30.2802 17.9325 30.4755 18.3698 30.3437 18.7837C29.7671 20.5944 28.1832 23.9852 25.3637 25.6131C22.4698 27.2839 18.9623 26.7001 17.3883 26.1486C17.0786 26.0401 16.8667 25.7587 16.8954 25.4319C17.043 23.7511 18.642 20.4055 21.4284 18.7968Z" stroke="white" stroke-width="2"/>
<path d="M20.852 7.41483C22.8749 6.24692 25.7528 6.23378 27.2265 6.6073C27.6476 6.71403 27.8449 7.14935 27.7057 7.56085C27.2209 8.99454 26.0051 11.4788 23.9 12.6941C21.7249 13.9499 19.1023 13.5613 17.8349 13.1468C17.5231 13.0449 17.3115 12.7614 17.3541 12.4361C17.5289 11.1012 18.7572 8.62427 20.852 7.41483Z" stroke="white" stroke-width="2"/>
<path d="M13.6771 7.41483C11.6542 6.24692 8.77621 6.23378 7.30255 6.6073C6.88148 6.71403 6.68414 7.14935 6.8233 7.56085C7.30816 8.99454 8.52397 11.4788 10.629 12.6941C12.8041 13.9499 15.4268 13.5613 16.6941 13.1468C17.0059 13.0449 17.2176 12.7614 17.175 12.4361C17.0002 11.1012 15.7719 8.62427 13.6771 7.41483Z" stroke="white" stroke-width="2"/>
<path d="M12.2392 18.7968C9.53015 17.2328 5.63339 17.2727 3.8041 17.8101C3.38731 17.9325 3.19209 18.3698 3.32388 18.7837C3.9004 20.5944 5.48432 23.9852 8.3038 25.6131C11.1977 27.2839 14.7053 26.7001 16.2793 26.1486C16.5889 26.0401 16.8008 25.7587 16.7721 25.4319C16.6245 23.7511 15.0255 20.4055 12.2392 18.7968Z" stroke="white" stroke-width="2"/>
<path d="M17.0419 8.95337L17.0419 34" stroke="white" stroke-width="2"/>
<path fill-rule="evenodd" clip-rule="evenodd" d="M37.2369 11.0001L36.8979 10.8746C36.0767 10.5707 35.4293 9.92331 35.1254 9.10216L35 8.76313L34.8745 9.10216C34.5707 9.92331 33.9233 10.5707 33.1021 10.8746L32.7631 11.0001L33.1021 11.1255C33.9233 11.4294 34.5707 12.0768 34.8745 12.8979L35 13.237L35.1254 12.8979C35.4293 12.0768 36.0767 11.4294 36.8979 11.1255L37.2369 11.0001ZM40.4655 11.9379C41.3361 11.6157 41.3361 10.3844 40.4655 10.0622L37.592 8.9989C37.3182 8.89761 37.1024 8.6818 37.0011 8.40808L35.9378 5.53456C35.6157 4.66394 34.3843 4.66394 34.0621 5.53455L32.9988 8.40808C32.8976 8.6818 32.6817 8.89761 32.408 8.9989L29.5345 10.0622C28.6639 10.3844 28.6639 11.6157 29.5345 11.9379L32.408 13.0012C32.6817 13.1025 32.8976 13.3183 32.9988 13.592L34.0621 16.4655C34.3843 17.3362 35.6157 17.3362 35.9378 16.4655L37.0011 13.592C37.1024 13.3183 37.3182 13.1025 37.592 13.0012L40.4655 11.9379Z" fill="white"/>
<path fill-rule="evenodd" clip-rule="evenodd" d="M35.2369 32.0001L34.8979 31.8746C34.0767 31.5707 33.4293 30.9233 33.1254 30.1022L33 29.7631L32.8745 30.1022C32.5707 30.9233 31.9233 31.5707 31.1021 31.8746L30.7631 32.0001L31.1021 32.1255C31.9233 32.4294 32.5707 33.0768 32.8745 33.8979L33 34.237L33.1254 33.8979C33.4293 33.0768 34.0767 32.4294 34.8979 32.1255L35.2369 32.0001ZM38.4655 32.9379C39.3361 32.6157 39.3361 31.3844 38.4655 31.0622L35.592 29.9989C35.3182 29.8976 35.1024 29.6818 35.0011 29.4081L33.9378 26.5346C33.6157 25.6639 32.3843 25.6639 32.0621 26.5346L30.9988 29.4081C30.8976 29.6818 30.6817 29.8976 30.408 29.9989L27.5345 31.0622C26.6639 31.3844 26.6639 32.6157 27.5345 32.9379L30.408 34.0012C30.6817 34.1025 30.8976 34.3183 30.9988 34.592L32.0621 37.4655C32.3843 38.3362 33.6157 38.3362 33.9378 37.4655L35.0011 34.592C35.1024 34.3183 35.3182 34.1025 35.592 34.0012L38.4655 32.9379Z" fill="white"/>
<path fill-rule="evenodd" clip-rule="evenodd" d="M43.2369 21.5001L41.803 20.9695C40.9819 20.6656 40.3344 20.0182 40.0306 19.197L39.5 17.7631L38.9694 19.197C38.6656 20.0182 38.0181 20.6656 37.197 20.9695L35.7631 21.5001L37.197 22.0306C38.0181 22.3345 38.6656 22.9819 38.9694 23.8031L39.5 25.237L40.0306 23.8031C40.3344 22.9819 40.9819 22.3345 41.803 22.0306L43.2369 21.5001ZM46.4655 22.4379C47.3361 22.1157 47.3361 20.8844 46.4655 20.5622L42.4971 19.0938C42.2234 18.9925 42.0076 18.7767 41.9063 18.5029L40.4378 14.5346C40.1157 13.6639 38.8843 13.6639 38.5621 14.5346L37.0937 18.5029C36.9924 18.7767 36.7766 18.9925 36.5029 19.0938L32.5345 20.5622C31.6639 20.8844 31.6639 22.1157 32.5345 22.4379L36.5029 23.9063C36.7766 24.0076 36.9924 24.2234 37.0937 24.4972L38.5621 28.4655C38.8843 29.3362 40.1157 29.3362 40.4378 28.4655L41.9063 24.4972C42.0076 24.2234 42.2234 24.0076 42.4971 23.9063L46.4655 22.4379Z" fill="white"/>
</svg>
