<svg width="48" height="48" viewBox="0 0 48 48" fill="none" xmlns="http://www.w3.org/2000/svg">
<circle cx="11.5" cy="11.5" r="8.5" stroke="white" stroke-width="2"/>
<circle cx="11.5" cy="10.5" r="2.5" stroke="white" stroke-width="2"/>
<path d="M18 17C18 15.75 15.5376 14 12.5 14C9.46243 14 7 16.2386 7 19" stroke="white" stroke-width="2"/>
<path d="M34 32V46" stroke="white" stroke-width="2"/>
<path d="M22.5172 7H34.25C39.0825 7 43 10.9175 43 15.75V15.75C43 20.5825 39.0825 24.5 34.25 24.5H18.75C13.9175 24.5 10 28.4175 10 33.25V33.25C10 38.0825 13.9175 42 18.75 42H28.7759" stroke="white" stroke-width="2"/>
<path fill-rule="evenodd" clip-rule="evenodd" d="M35 34V39H40.968L40.6306 38.6815C39.3765 37.4975 39.3765 35.5025 40.6306 34.3185L40.968 34H35ZM34 32C33.4477 32 33 32.4477 33 33V40C33 40.5523 33.4477 41 34 41H43.484C44.3889 41 44.8285 39.894 44.1705 39.2728L42.0036 37.2272C41.5855 36.8325 41.5855 36.1675 42.0036 35.7728L44.1705 33.7272C44.8285 33.106 44.3889 32 43.484 32H34Z" fill="white"/>
</svg>
