<svg width="48" height="48" viewBox="0 0 48 48" fill="none" xmlns="http://www.w3.org/2000/svg">
<rect x="5" y="5" width="38" height="38" stroke="white" stroke-width="2"/>
<rect x="4" y="4" width="4" height="4" rx="1" fill="black" stroke="white" stroke-width="2"/>
<rect x="40" y="4" width="4" height="4" rx="1" fill="black" stroke="white" stroke-width="2"/>
<rect x="40" y="40" width="4" height="4" rx="1" fill="black" stroke="white" stroke-width="2"/>
<rect x="4" y="40" width="4" height="4" rx="1" fill="black" stroke="white" stroke-width="2"/>
<rect x="11.6667" y="11.6665" width="24.6667" height="24.6667" rx="7" stroke="white" stroke-width="2"/>
<path fill-rule="evenodd" clip-rule="evenodd" d="M24 19.7629L23.3344 21.5617C23.0305 22.3829 22.3831 23.0303 21.5619 23.3342L19.7631 23.9998L21.5619 24.6654C22.3831 24.9693 23.0305 25.6167 23.3344 26.4379L24 28.2367L24.6656 26.4379C24.9695 25.6167 25.6169 24.9693 26.4381 24.6654L28.2369 23.9998L26.4381 23.3342C25.6169 23.0303 24.9695 22.3829 24.6656 21.5617L24 19.7629ZM24.9379 16.5343C24.6157 15.6637 23.3843 15.6637 23.0622 16.5343L21.4587 20.8677C21.3574 21.1414 21.1416 21.3572 20.8679 21.4585L16.5345 23.062C15.6639 23.3841 15.6639 24.6155 16.5345 24.9377L20.8679 26.5411C21.1416 26.6424 21.3574 26.8582 21.4587 27.132L23.0622 31.4653C23.3843 32.3359 24.6157 32.3359 24.9379 31.4653L26.5413 27.132C26.6426 26.8582 26.8584 26.6424 27.1322 26.5411L31.4655 24.9377C32.3361 24.6155 32.3361 23.3841 31.4655 23.062L27.1322 21.4585C26.8584 21.3572 26.6426 21.1414 26.5413 20.8677L24.9379 16.5343Z" fill="white"/>
</svg>
